# xmcd
#
# Track frame offsets:
#	150
#	17603
#	37278
#	56939
#	74325
#	95125
#	116200
#	133033
#	151886
#	172341
#	189560
#	210903
#	235311
#
# Disc length: 3392 seconds
#
# Revision: 0
# Processed by: cddbd v1.4PL0 Copyright (c) Steve Scherf et al.
# Submitted via: dBpowerAMP V4.0
#
DISCID=c50d3e0d
DTITLE=donell jones - life goes on
DYEAR=1900
DGENRE=
TTITLE0=still
TTITLE1=put me down
TTITLE2=you know that i love
TTITLE3=where you are
TTITLE4=do u wanna
TTITLE5=life goes on
TTITLE6=freakin u
TTITLE7=gotta get her
TTITLE8=guilt by suspicion
TTITLE9=dont leave
TTITLE10=come back
TTITLE11=i hope its you
TTITLE12=?
EXTD=
EXTT0=
EXTT1=
EXTT2=
EXTT3=
EXTT4=
EXTT5=
EXTT6=
EXTT7=
EXTT8=
EXTT9=
EXTT10=
EXTT11=
EXTT12=
PLAYORDER=
